<svg xmlns="http://www.w3.org/2000/svg" width="100%" viewBox="0 0 680 420" font-family="system-ui,-apple-system,BlinkMacSystemFont,sans-serif">
  <defs>
    <marker id="arr" viewBox="0 0 10 10" refX="8" refY="5" markerWidth="6" markerHeight="6" orient="auto-start-reverse">
      <path d="M2 1L8 5L2 9" fill="none" stroke="#888780" stroke-width="1.5" stroke-linecap="round" stroke-linejoin="round"/>
    </marker>
  </defs>

  <rect x="110" y="50" width="120" height="22" rx="11" fill="#E1F5EE" stroke="#0F6E56" stroke-width="0.5"/>
  <text x="170" y="61" text-anchor="middle" dominant-baseline="central" fill="#085041" font-size="12" font-weight="500">1 Put premium</text>

  <rect x="448" y="50" width="124" height="22" rx="11" fill="#EEEDFE" stroke="#534AB7" stroke-width="0.5"/>
  <text x="510" y="61" text-anchor="middle" dominant-baseline="central" fill="#3C3489" font-size="12" font-weight="500">2 Call premium</text>

  <line x1="170" y1="72" x2="170" y2="90" stroke="#B4B2A9" stroke-width="1" stroke-dasharray="2 2"/>
  <line x1="510" y1="72" x2="510" y2="90" stroke="#B4B2A9" stroke-width="1" stroke-dasharray="2 2"/>

  <rect x="50" y="90" width="240" height="80" rx="8" fill="#E1F5EE" stroke="#0F6E56" stroke-width="0.5"/>
  <text x="170" y="118" text-anchor="middle" dominant-baseline="central" fill="#085041" font-size="14" font-weight="500">Phase 1</text>
  <text x="170" y="142" text-anchor="middle" dominant-baseline="central" fill="#0F6E56" font-size="12">Sell a cash-secured put</text>

  <rect x="390" y="90" width="240" height="80" rx="8" fill="#EEEDFE" stroke="#534AB7" stroke-width="0.5"/>
  <text x="510" y="118" text-anchor="middle" dominant-baseline="central" fill="#3C3489" font-size="14" font-weight="500">Phase 2</text>
  <text x="510" y="142" text-anchor="middle" dominant-baseline="central" fill="#534AB7" font-size="12">Sell a covered call</text>

  <rect x="220" y="300" width="240" height="80" rx="8" fill="#FAEEDA" stroke="#854F0B" stroke-width="0.5"/>
  <text x="340" y="328" text-anchor="middle" dominant-baseline="central" fill="#633806" font-size="14" font-weight="500">Shares called away</text>
  <text x="340" y="352" text-anchor="middle" dominant-baseline="central" fill="#854F0B" font-size="12">3 Take profit - restart</text>

  <circle cx="340" cy="232" r="44" fill="#F1EFE8" stroke="#B4B2A9" stroke-width="0.5"/>
  <text x="340" y="225" text-anchor="middle" dominant-baseline="central" fill="#444441" font-size="14" font-weight="500">The</text>
  <text x="340" y="242" text-anchor="middle" dominant-baseline="central" fill="#444441" font-size="14" font-weight="500">Wheel</text>

  <line x1="290" y1="130" x2="390" y2="130" stroke="#888780" stroke-width="1.5" marker-end="url(#arr)"/>
  <text x="340" y="118" text-anchor="middle" fill="#5F5E5A" font-size="12">If assigned</text>

  <path d="M 510 170 Q 580 235 400 300" fill="none" stroke="#888780" stroke-width="1.5" marker-end="url(#arr)"/>
  <text x="528" y="232" text-anchor="start" fill="#5F5E5A" font-size="12">Called away</text>

  <path d="M 220 340 L 30 340 L 30 130 L 50 130" fill="none" stroke="#888780" stroke-width="1.5" marker-end="url(#arr)"/>
  <text x="40" y="232" text-anchor="start" fill="#5F5E5A" font-size="12">Restart -&gt;</text>
</svg>
